<svg xmlns="http://www.w3.org/2000/svg" data-name="Layer 1" viewBox="0 0 100 125" x="0px" y="0px"><title>Media Player</title><path d="M46.16,8.14a42,42,0,1,0,45.7,45.7A42.12,42.12,0,0,0,46.16,8.14ZM26.29,52h-4a2,2,0,0,1,0-4h4a2,2,0,0,1,0,4Zm8.06,2.3a2,2,0,0,1-4,0V45.7a2,2,0,0,1,4,0Zm5.88,5.5a2,2,0,0,1-4,0V40.2a2,2,0,0,1,4,0Zm5.89-2.5a2,2,0,0,1-4,0V42.7a2,2,0,0,1,4,0ZM52,62.8a2,2,0,0,1-4,0V37.2a2,2,0,0,1,4,0Zm5.88-5.5a2,2,0,0,1-4,0V42.7a2,2,0,0,1,4,0Zm5.89,2.5a2,2,0,0,1-4,0V40.2a2,2,0,0,1,4,0Zm5.88-5.5a2,2,0,0,1-4,0V45.7a2,2,0,0,1,4,0Zm8-2.3h-4a2,2,0,0,1,0-4h4a2,2,0,0,1,0,4Z"/><text x="0" y="115" fill="#000000" font-size="5px" font-weight="bold" font-family="'Helvetica Neue', Helvetica, Arial-Unicode, Arial, Sans-serif">Created by Rizky Mapat Waluya</text><text x="0" y="120" fill="#000000" font-size="5px" font-weight="bold" font-family="'Helvetica Neue', Helvetica, Arial-Unicode, Arial, Sans-serif">from the Noun Project</text></svg>