<svg xmlns="http://www.w3.org/2000/svg" xmlns:xlink="http://www.w3.org/1999/xlink" width="300" zoomAndPan="magnify" viewBox="0 0 224.87999 89.999999" height="120" preserveAspectRatio="xMidYMid meet" version="1.0"><defs><g/><clipPath id="b25e54c978"><path d="M 0 0.0234375 L 130 0.0234375 L 130 89.976562 L 0 89.976562 Z M 0 0.0234375 " clip-rule="nonzero"/></clipPath><clipPath id="307ebc14c0"><path d="M 44 0.0234375 L 140 0.0234375 L 140 83 L 44 83 Z M 44 0.0234375 " clip-rule="nonzero"/></clipPath><clipPath id="0884a59211"><path d="M 72 6 L 166 6 L 166 89.976562 L 72 89.976562 Z M 72 6 " clip-rule="nonzero"/></clipPath><clipPath id="53b35e9e61"><path d="M 107 0.0234375 L 224.761719 0.0234375 L 224.761719 89.976562 L 107 89.976562 Z M 107 0.0234375 " clip-rule="nonzero"/></clipPath></defs><g clip-path="url(#b25e54c978)"><path stroke-linecap="butt" transform="matrix(1.687941, 0, 0, 1.687941, -9.588945, -22.444865)" fill="none" stroke-linejoin="miter" d="M 42.349506 54.999244 L 29.602839 54.999244 L 29.602839 39.85737 C 29.602839 39.042768 29.399189 38.429502 28.991888 38.022201 C 28.582273 37.605643 28.100917 37.397365 27.545507 37.397365 C 26.999353 37.397365 26.522626 37.591758 26.113011 37.98286 C 25.70571 38.373961 25.502059 38.980284 25.502059 39.806457 L 25.502059 54.999244 L 12.378176 54.999244 L 12.378176 39.271875 C 12.378176 36.46011 12.810933 34.094987 13.678762 32.176507 C 14.555847 30.258027 15.731466 28.712135 17.207932 27.541145 C 18.684397 26.360898 20.315915 25.504641 22.102485 24.974687 C 23.900626 24.447047 25.724223 24.180913 27.570963 24.180913 C 29.065942 24.180913 30.540094 24.43779 31.998046 24.94923 C 33.455998 25.462985 34.788983 26.326185 35.997001 27.541145 C 37.029138 26.395611 38.299639 25.557867 39.810818 25.027913 C 41.321997 24.497959 42.805406 24.215626 44.263358 24.180913 C 46.147125 24.180913 47.996178 24.453989 49.810519 25.002457 C 51.624859 25.548611 53.270262 26.421068 54.744414 27.619828 C 56.22088 28.807018 57.401127 30.362167 58.285155 32.280647 C 59.180754 34.199127 59.627397 36.529536 59.627397 39.271875 L 59.627397 54.999244 L 46.503513 54.999244 L 46.503513 39.806457 C 46.503513 38.980284 46.290606 38.373961 45.864791 37.98286 C 45.438976 37.591758 44.957621 37.397365 44.420724 37.397365 C 43.89077 37.397365 43.414043 37.605643 42.988228 38.022201 C 42.562414 38.429502 42.349506 39.042768 42.349506 39.85737 Z M 42.349506 54.999244 " stroke="#000000" stroke-width="3.999998" stroke-opacity="1" stroke-miterlimit="4"/></g><g fill="#ffffff" fill-opacity="1"><g transform="translate(10.402608, 70.391901)"><g><path d="M 51.484375 0 L 29.96875 0 L 29.96875 -25.5625 C 29.96875 -26.945312 29.625 -27.984375 28.9375 -28.671875 C 28.25 -29.359375 27.4375 -29.703125 26.5 -29.703125 C 25.570312 -29.703125 24.765625 -29.367188 24.078125 -28.703125 C 23.390625 -28.046875 23.046875 -27.03125 23.046875 -25.65625 L 23.046875 0 L 0.90625 0 L 0.90625 -26.546875 C 0.90625 -31.296875 1.640625 -35.289062 3.109375 -38.53125 C 4.578125 -41.769531 6.554688 -44.378906 9.046875 -46.359375 C 11.535156 -48.335938 14.296875 -49.773438 17.328125 -50.671875 C 20.359375 -51.578125 23.429688 -52.03125 26.546875 -52.03125 C 29.066406 -52.03125 31.554688 -51.59375 34.015625 -50.71875 C 36.484375 -49.851562 38.738281 -48.398438 40.78125 -46.359375 C 42.519531 -48.273438 44.660156 -49.679688 47.203125 -50.578125 C 49.753906 -51.484375 52.265625 -51.96875 54.734375 -52.03125 C 57.910156 -52.03125 61.03125 -51.5625 64.09375 -50.625 C 67.15625 -49.695312 69.929688 -48.226562 72.421875 -46.21875 C 74.910156 -44.207031 76.90625 -41.582031 78.40625 -38.34375 C 79.90625 -35.101562 80.65625 -31.171875 80.65625 -26.546875 L 80.65625 0 L 58.515625 0 L 58.515625 -25.65625 C 58.515625 -27.03125 58.148438 -28.046875 57.421875 -28.703125 C 56.703125 -29.367188 55.894531 -29.703125 55 -29.703125 C 54.101562 -29.703125 53.289062 -29.359375 52.5625 -28.671875 C 51.84375 -27.984375 51.484375 -26.945312 51.484375 -25.5625 Z M 51.484375 0 "/></g></g></g><g clip-path="url(#307ebc14c0)"><path stroke-linecap="butt" transform="matrix(1.234202, 0, 0, 1.234202, 72.142361, -14.852902)" fill="none" stroke-linejoin="miter" d="M 18.396737 25.080543 L 31.626436 25.080543 L 31.626436 40.392813 C 31.626436 42.953297 31.186501 45.200447 30.309796 47.137427 C 29.442586 49.071242 28.262041 50.691722 26.768162 51.992537 C 25.277447 53.287022 23.606327 54.252347 21.757967 54.894842 C 19.906442 55.537337 18.023267 55.860167 16.105277 55.860167 C 14.152472 55.860167 12.250307 55.537337 10.401948 54.894842 C 8.553588 54.252347 6.882468 53.287022 5.391753 51.992537 C 3.897873 50.691722 2.710998 49.071242 1.834293 47.137427 C 0.967083 45.200447 0.533478 42.953297 0.533478 40.392813 L 0.533478 25.080543 L 13.763177 25.080543 L 13.763177 39.857928 C 13.763177 40.778942 14.010047 41.472077 14.503787 41.940497 C 14.997527 42.399422 15.532412 42.630467 16.105277 42.630467 C 16.678142 42.630467 17.203532 42.399422 17.681447 41.940497 C 18.159362 41.472077 18.396737 40.778942 18.396737 39.857928 Z M 18.396737 25.080543 " stroke="#171616" stroke-width="3.999998" stroke-opacity="1" stroke-miterlimit="4"/></g><g fill="#ffffff" fill-opacity="1"><g transform="translate(72.142361, 53.028224)"><g><path d="M 22.703125 -36.921875 L 39.03125 -36.921875 L 39.03125 -18.03125 C 39.03125 -14.875 38.488281 -12.097656 37.40625 -9.703125 C 36.332031 -7.316406 34.875 -5.320312 33.03125 -3.71875 C 31.195312 -2.113281 29.132812 -0.914062 26.84375 -0.125 C 24.5625 0.65625 22.238281 1.046875 19.875 1.046875 C 17.457031 1.046875 15.109375 0.65625 12.828125 -0.125 C 10.546875 -0.914062 8.484375 -2.113281 6.640625 -3.71875 C 4.804688 -5.320312 3.347656 -7.316406 2.265625 -9.703125 C 1.191406 -12.097656 0.65625 -14.875 0.65625 -18.03125 L 0.65625 -36.921875 L 16.984375 -36.921875 L 16.984375 -18.6875 C 16.984375 -17.550781 17.289062 -16.695312 17.90625 -16.125 C 18.519531 -15.550781 19.175781 -15.265625 19.875 -15.265625 C 20.570312 -15.265625 21.21875 -15.550781 21.8125 -16.125 C 22.40625 -16.695312 22.703125 -17.550781 22.703125 -18.6875 Z M 22.703125 -36.921875 "/></g></g></g><g clip-path="url(#0884a59211)"><path stroke-linecap="butt" transform="matrix(1.234202, 0, 0, 1.234202, 89.465983, 3.540981)" fill="none" stroke-linejoin="miter" d="M 8.683837 54.999812 L 8.683837 42.580353 L 15.077136 42.580353 C 15.007506 42.431598 14.931546 42.295503 14.842926 42.175233 C 14.757471 42.054963 14.678346 41.937858 14.608716 41.823918 L 10.975296 41.823918 C 9.734616 40.045188 9.076297 38.177838 8.997172 36.225034 C 8.927542 34.272229 9.285187 32.550469 10.063776 31.056589 C 10.959471 29.347489 12.086211 28.056169 13.450326 27.188959 C 14.820771 26.321749 16.387446 25.742554 18.150351 25.457704 C 19.913256 25.169689 21.805926 25.027264 23.828361 25.027264 L 39.02036 25.027264 L 39.02036 37.085914 L 23.828361 37.085914 C 22.793406 37.085914 21.998991 37.449889 21.445116 38.177838 C 20.897571 38.905788 20.698176 39.681213 20.846931 40.494618 C 20.983026 41.137113 21.309021 41.722638 21.821751 42.254358 C 22.343976 42.782913 23.046606 43.048773 23.932806 43.048773 C 24.999411 43.048773 25.762176 42.703788 26.224266 42.020148 C 26.692685 41.323848 26.850935 40.551588 26.705345 39.700203 C 26.566085 38.842488 26.088171 38.215818 25.271601 37.826523 L 35.934485 37.826523 C 37.1087 39.067203 37.90628 40.374348 38.33039 41.744793 C 38.757665 43.118403 38.909585 44.444538 38.78615 45.729528 C 38.66588 47.005023 38.33672 48.160248 37.79867 49.192038 C 36.91247 50.894808 35.776235 52.157643 34.3868 52.980543 C 32.997365 53.797113 31.414865 54.341493 29.63297 54.610517 C 27.863735 54.870047 25.961571 54.999812 23.932806 54.999812 Z M 8.683837 54.999812 " stroke="#171616" stroke-width="3.999998" stroke-opacity="1" stroke-miterlimit="4"/></g><g fill="#ffffff" fill-opacity="1"><g transform="translate(99.590298, 71.422106)"><g><path d="M 0.59375 0 L 0.59375 -15.328125 L 8.484375 -15.328125 C 8.398438 -15.503906 8.300781 -15.671875 8.1875 -15.828125 C 8.082031 -15.984375 7.984375 -16.125 7.890625 -16.25 L 3.421875 -16.25 C 1.890625 -18.445312 1.078125 -20.75 0.984375 -23.15625 C 0.898438 -25.570312 1.335938 -27.703125 2.296875 -29.546875 C 3.398438 -31.648438 4.796875 -33.238281 6.484375 -34.3125 C 8.171875 -35.394531 10.097656 -36.109375 12.265625 -36.453125 C 14.441406 -36.804688 16.78125 -36.984375 19.28125 -36.984375 L 38.046875 -36.984375 L 38.046875 -22.109375 L 19.28125 -22.109375 C 18.007812 -22.109375 17.03125 -21.660156 16.34375 -20.765625 C 15.664062 -19.867188 15.414062 -18.914062 15.59375 -17.90625 C 15.769531 -17.113281 16.175781 -16.382812 16.8125 -15.71875 C 17.445312 -15.0625 18.316406 -14.734375 19.421875 -14.734375 C 20.734375 -14.734375 21.671875 -15.160156 22.234375 -16.015625 C 22.804688 -16.878906 23.003906 -17.835938 22.828125 -18.890625 C 22.660156 -19.941406 22.070312 -20.707031 21.0625 -21.1875 L 34.21875 -21.1875 C 35.664062 -19.65625 36.648438 -18.046875 37.171875 -16.359375 C 37.703125 -14.671875 37.890625 -13.035156 37.734375 -11.453125 C 37.585938 -9.867188 37.1875 -8.441406 36.53125 -7.171875 C 35.425781 -5.066406 34.019531 -3.507812 32.3125 -2.5 C 30.601562 -1.488281 28.648438 -0.816406 26.453125 -0.484375 C 24.265625 -0.160156 21.921875 0 19.421875 0 Z M 0.59375 0 "/></g></g></g><g clip-path="url(#53b35e9e61)"><path stroke-linecap="butt" transform="matrix(1.731464, 0, 0, 1.731464, 116.955261, -25.433413)" fill="none" stroke-linejoin="miter" d="M 39.858471 25.080286 L 53.931645 25.080286 L 45.286502 40.013011 L 54.621993 54.999881 L 40.548819 54.999881 C 39.445616 53.219866 38.351437 51.437595 37.266282 49.648556 C 36.181127 47.852748 35.089204 46.081757 33.986 44.335583 L 33.139986 44.335583 L 35.639677 48.333285 L 31.538198 54.999881 L 17.451487 54.999881 L 26.680945 40.013011 L 18.153116 25.080286 L 32.228546 25.080286 L 36.068325 32.437231 Z M 39.858471 25.080286 " stroke="#000000" stroke-width="3.999998" stroke-opacity="1" stroke-miterlimit="4"/></g><g fill="#ffffff" fill-opacity="1"><g transform="translate(147.824009, 69.79708)"><g><path d="M 38.140625 -51.8125 L 62.515625 -51.8125 L 47.5625 -25.953125 L 63.71875 0 L 39.34375 0 C 37.425781 -3.082031 35.53125 -6.175781 33.65625 -9.28125 C 31.78125 -12.382812 29.890625 -15.445312 27.984375 -18.46875 L 26.5 -18.46875 L 30.84375 -11.546875 L 23.734375 0 L -0.640625 0 L 15.328125 -25.953125 L 0.546875 -51.8125 L 24.9375 -51.8125 L 31.578125 -39.0625 Z M 38.140625 -51.8125 "/></g></g></g><path stroke-linecap="butt" transform="matrix(0.552294, 0, 0, 0.552294, 116.955261, 1.156863)" fill="none" stroke-linejoin="miter" d="M 41.562794 59.898168 L 72.315193 59.898168 L 72.315193 130.003452 L 41.562794 130.003452 Z M 41.562794 59.898168 " stroke="#000000" stroke-width="9.371925" stroke-opacity="1" stroke-miterlimit="4"/><g fill="#ffffff" fill-opacity="1"><g transform="translate(139.219626, 72.955125)"><g><path d="M 0.6875 -38.71875 L 17.671875 -38.71875 L 17.671875 0 L 0.6875 0 Z M 0.6875 -38.71875 "/></g></g></g></svg>